<svg aria-label="Services" viewBox="0 0 619.061 44.976" xmlns="http://www.w3.org/2000/svg">
  <rect x="559.83" y="0" width="59.23" height="6.58"/><rect x="549.7" y="38.4" width="59.23" height="6.58"/><rect x="549.7" y="9.6" width="10.13" height="6.58"/><rect x="559.83" y="19.2" width="49.1" height="6.58"/><rect x="608.93" y="28.8" width="10.13" height="6.58"/>
  <rect x="471.17" y="0" width="69.41" height="6.58"/><rect x="471.17" y="38.4" width="69.41" height="6.58"/><rect x="471.17" y="28.8" width="10.13" height="6.58"/><rect x="471.17" y="19.2" width="39.74" height="6.58"/><rect x="471.17" y="9.6" width="10.13" height="6.58"/>
  <rect x="402.77" y="0" width="59.23" height="6.58"/><rect x="392.64" y="28.8" width="10.13" height="6.58"/><rect x="392.64" y="19.2" width="10.13" height="6.58"/><rect x="392.64" y="9.6" width="10.13" height="6.58"/><rect x="402.77" y="38.4" width="59.23" height="6.58"/>
  <rect x="314.12" y="0" width="69.41" height="6.58"/><rect x="314.12" y="38.4" width="69.41" height="6.58"/><rect x="343.73" y="28.8" width="10.13" height="6.58"/><rect x="343.73" y="19.2" width="10.13" height="6.58"/><rect x="343.73" y="9.6" width="10.13" height="6.58"/>
  <rect x="235.59" y="0" width="10.13" height="6.58"/><rect x="235.59" y="9.6" width="10.13" height="6.58"/><rect x="245.71" y="19.2" width="14.78" height="6.58"/><rect x="250.37" y="28.8" width="10.13" height="6.58"/><rect x="260.55" y="38.4" width="19.44" height="6.58"/><rect x="279.99" y="28.8" width="10.13" height="6.58"/><rect x="279.99" y="19.2" width="14.83" height="6.58"/><rect x="294.82" y="9.6" width="10.13" height="6.58"/><rect x="294.82" y="0" width="10.13" height="6.58"/>
  <rect x="157.06" y="0" width="69.36" height="6.58"/><rect x="157.06" y="38.4" width="10.13" height="6.58"/><rect x="157.06" y="28.8" width="10.13" height="6.58"/><rect x="157.06" y="19.2" width="69.36" height="6.58"/><rect x="157.06" y="9.6" width="10.13" height="6.58"/><rect x="196.8" y="28.8" width="14.88" height="6.58"/><rect x="211.68" y="38.4" width="14.78" height="6.58"/><rect x="216.29" y="9.6" width="10.13" height="6.58"/>
  <rect x="78.53" y="0" width="69.41" height="6.58"/><rect x="78.53" y="38.4" width="69.41" height="6.58"/><rect x="78.53" y="28.8" width="10.13" height="6.58"/><rect x="78.53" y="19.2" width="39.74" height="6.58"/><rect x="78.53" y="9.6" width="10.13" height="6.58"/>
  <rect x="10.13" y="0" width="59.23" height="6.58"/><rect x="0" y="38.4" width="59.23" height="6.58"/><rect x="0" y="9.6" width="10.13" height="6.58"/><rect x="10.13" y="19.2" width="49.1" height="6.58"/><rect x="59.23" y="28.8" width="10.13" height="6.58"/>
</svg>
